<svg xmlns="http://www.w3.org/2000/svg" viewBox="0 0 800 450" role="img" aria-labelledby="title desc">
  <title id="title">Assorted wire placeholder</title>
  <desc id="desc">Coils of red, blue, cream, and black workshop wire.</desc>
  <defs>
    <linearGradient id="bench" x1="0" y1="0" x2="0" y2="1">
      <stop offset="0" stop-color="#d8b986"/>
      <stop offset="1" stop-color="#b9905e"/>
    </linearGradient>
    <filter id="shadow" x="-20%" y="-20%" width="140%" height="150%">
      <feDropShadow dx="0" dy="12" stdDeviation="12" flood-color="#3c2a17" flood-opacity=".28"/>
    </filter>
  </defs>
  <rect width="800" height="450" fill="url(#bench)"/>
  <g opacity=".13" fill="#5d4128">
    <circle cx="94" cy="84" r="3"/><circle cx="698" cy="73" r="2"/>
    <circle cx="124" cy="356" r="2"/><circle cx="653" cy="352" r="3"/>
    <path d="M0 112h180M620 305h180M53 399h210M555 122h205" stroke="#5d4128" stroke-width="2"/>
  </g>
  <g fill="none" stroke-linecap="round" filter="url(#shadow)">
    <ellipse cx="398" cy="238" rx="238" ry="128" stroke="#262525" stroke-width="26"/>
    <ellipse cx="402" cy="230" rx="207" ry="108" stroke="#cf2f35" stroke-width="18"/>
    <ellipse cx="395" cy="222" rx="177" ry="91" stroke="#285d9f" stroke-width="15"/>
    <ellipse cx="401" cy="215" rx="145" ry="72" stroke="#eee1bd" stroke-width="13"/>
    <ellipse cx="399" cy="218" rx="116" ry="55" stroke="#262525" stroke-width="18"/>
    <path d="M166 248C99 262 75 302 32 327" stroke="#262525" stroke-width="26"/>
    <path d="M218 309C155 342 111 363 57 375" stroke="#cf2f35" stroke-width="18"/>
    <path d="M564 164C633 132 690 114 766 128" stroke="#285d9f" stroke-width="15"/>
    <path d="M585 288C653 305 701 333 773 323" stroke="#eee1bd" stroke-width="13"/>
  </g>
  <g fill="#b87333">
    <path d="M17 318l28-9 5 21-29 8z"/>
    <path d="M42 366l30-3 2 20-31 4z"/>
  </g>
</svg>
